<?xml version="1.0" encoding="UTF-8"?>
<svg version="1.1" xmlns="http://www.w3.org/2000/svg" width="109" height="102">
<path d="M0 0 C3.53946161 0.76290331 5.08250112 1.73938583 7.6015625 4.37890625 C8.58382812 5.38920898 8.58382812 5.38920898 9.5859375 6.41992188 C10.25882813 7.12697266 10.93171875 7.83402344 11.625 8.5625 C12.96679476 9.9640148 14.312933 11.36138839 15.6640625 12.75390625 C16.25654785 13.37595947 16.8490332 13.9980127 17.45947266 14.63891602 C18.90719002 16.22070417 18.90719002 16.22070417 21 16 C21.495 22.93 21.495 22.93 22 30 C22.33 27.69 22.66 25.38 23 23 C30.66688955 19.74661954 38.46612371 17.20885847 46.4375 14.8125 C48.74874977 14.11084787 51.05995009 13.40903281 53.37109375 12.70703125 C54.38099365 12.4025708 55.39089355 12.09811035 56.43139648 11.78442383 C58.29557873 11.21512266 60.15085118 10.61638294 62 10 C62 11.65 62 13.3 62 15 C60.88625 15.28875 59.7725 15.5775 58.625 15.875 C54.99708908 16.69241329 54.99708908 16.69241329 53 19 C51.28859973 19.88922842 49.55547693 20.73687935 47.8125 21.5625 C41.98021849 24.40803202 36.47695194 27.64238167 30.98950195 31.10375977 C26.31564226 34 26.31564226 34 23 34 C22.19070518 37.60870608 21.82185917 41.04461938 21.68359375 44.73828125 C21.64169922 45.80498047 21.59980469 46.87167969 21.55664062 47.97070312 C21.51732422 49.07349609 21.47800781 50.17628906 21.4375 51.3125 C21.39431641 52.43462891 21.35113281 53.55675781 21.30664062 54.71289062 C21.20085213 57.47514569 21.09876328 60.2374863 21 63 C21.99 63 22.98 63 24 63 C24 63.66 24 64.32 24 65 C24.86625 65.37125 24.86625 65.37125 25.75 65.75 C28.3334875 67.18527083 29.97785783 68.85147394 32 71 C33.29470975 72.37086915 34.62150897 73.71340837 36 75 C36.66 75 37.32 75 38 75 C38.99 75.99 38.99 75.99 40 77 C40.99 77.66 41.98 78.32 43 79 C43.43237305 81.06298828 43.43237305 81.06298828 43.51171875 83.5703125 C43.54716797 84.46621094 43.58261719 85.36210938 43.61914062 86.28515625 C43.65297852 87.69087891 43.65297852 87.69087891 43.6875 89.125 C43.72166016 90.06988281 43.75582031 91.01476562 43.79101562 91.98828125 C43.87364112 94.32540253 43.94273988 96.66214191 44 99 C36.82159861 96.86409529 30.64016843 93.853986 24.125 90.1875 C23.20847656 89.67896484 22.29195312 89.17042969 21.34765625 88.64648438 C19.49934254 87.62094322 17.6571318 86.58432318 15.82128906 85.53662109 C12.98809816 83.94860977 12.98809816 83.94860977 9.88964844 82.59228516 C8.89223633 82.12483887 7.89482422 81.65739258 6.8671875 81.17578125 C5.9582373 80.77915283 5.04928711 80.38252441 4.11279297 79.97387695 C1.42642481 77.46413734 1.28491126 75.46585532 1.07159424 71.87837219 C1.04796814 70.92850937 1.02434204 69.97864655 1 69 C0.96396667 67.85472336 0.92793335 66.70944672 0.89080811 65.52946472 C0.78769306 61.36199631 0.73095525 57.19571986 0.68359375 53.02734375 C0.66298457 51.49320466 0.64198718 49.95907074 0.62062073 48.42494202 C0.56580882 44.41541775 0.51622184 40.40584577 0.46777344 36.39624023 C0.41725707 32.29341459 0.3617294 28.19065698 0.30664062 24.08789062 C0.19956024 16.05865152 0.09800713 8.02935496 0 0 Z " fill="#6797F1" transform="translate(34,2)"/>
<path d="M0 0 C0.495 1.98 0.495 1.98 1 4 C-0.98 4.99 -0.98 4.99 -3 6 C-3 6.66 -3 7.32 -3 8 C-4.98 8.99 -6.96 9.98 -9 11 C-9 11.66 -9 12.32 -9 13 C-10.65 13.66 -12.3 14.32 -14 15 C-14 15.66 -14 16.32 -14 17 C-15.65 17.66 -17.3 18.32 -19 19 C-19 20.32 -19 21.64 -19 23 C-19.8125 24.9375 -19.8125 24.9375 -21 27 C-21.45375 27.825 -21.9075 28.65 -22.375 29.5 C-24.01926081 32.02963202 -25.83841647 33.91046925 -28 36 C-28.33 36.66 -28.66 37.32 -29 38 C-28.01 38 -27.02 38 -26 38 C-25.67 38 -25.34 38 -25 38 C-24.91903197 39.45742463 -24.86082226 40.91612807 -24.8125 42.375 C-24.76029297 43.59316406 -24.76029297 43.59316406 -24.70703125 44.8359375 C-24.80371094 45.55007812 -24.90039062 46.26421875 -25 47 C-25.99 47.66 -26.98 48.32 -28 49 C-25.03 53.29 -22.06 57.58 -19 62 C-19.33 62.66 -19.66 63.32 -20 64 C-28.37709817 61.17965432 -37.30667295 55.60572987 -42 48 C-44.07185801 39.51881564 -43.06941686 30.58049764 -42 22 C-32.97800677 16.94557339 -23.94200105 11.92074617 -14.8125 7.0625 C-14.13131104 6.69777588 -13.45012207 6.33305176 -12.74829102 5.95727539 C-8.57547818 3.7491083 -4.36279583 1.8050997 0 0 Z M-34 22 C-34.66 23.32 -35.32 24.64 -36 26 C-34.68 24.68 -33.36 23.36 -32 22 C-32.66 22 -33.32 22 -34 22 Z M-24 22 C-25.70532323 23.94009522 -25.70532323 23.94009522 -27 26 C-23.27385847 24.88145414 -23.27385847 24.88145414 -21 22 C-21.99 22 -22.98 22 -24 22 Z M-29 26 C-29.33 26.66 -29.66 27.32 -30 28 C-29.01 27.67 -28.02 27.34 -27 27 C-27.66 26.67 -28.32 26.34 -29 26 Z " fill="#FC61AD" transform="translate(99,16)"/>
<path d="M0 0 C3.42326804 0.57895565 5.00673361 1.66184538 7.3828125 4.16015625 C8.29740234 5.1027832 8.29740234 5.1027832 9.23046875 6.06445312 C9.85566406 6.72380859 10.48085938 7.38316406 11.125 8.0625 C12.37303169 9.37026437 13.6254225 10.67388717 14.8828125 11.97265625 C15.70869873 12.84289429 15.70869873 12.84289429 16.55126953 13.73071289 C17.92969874 15.21966302 17.92969874 15.21966302 20 15 C20.495 21.93 20.495 21.93 21 29 C21.33 26.69 21.66 24.38 22 22 C29.66688955 18.74661954 37.46612371 16.20885847 45.4375 13.8125 C47.74874977 13.11084787 50.05995009 12.40903281 52.37109375 11.70703125 C53.38099365 11.4025708 54.39089355 11.09811035 55.43139648 10.78442383 C57.29557873 10.21512266 59.15085118 9.61638294 61 9 C61 10.65 61 12.3 61 14 C59.88625 14.28875 58.7725 14.5775 57.625 14.875 C53.99708908 15.69241329 53.99708908 15.69241329 52 18 C50.28859973 18.88922842 48.55547693 19.73687935 46.8125 20.5625 C40.98021849 23.40803202 35.47695194 26.64238167 29.98950195 30.10375977 C25.31564226 33 25.31564226 33 22 33 C21.19070518 36.60870608 20.82185917 40.04461938 20.68359375 43.73828125 C20.64169922 44.80498047 20.59980469 45.87167969 20.55664062 46.97070312 C20.51732422 48.07349609 20.47800781 49.17628906 20.4375 50.3125 C20.39431641 51.43462891 20.35113281 52.55675781 20.30664062 53.71289062 C20.20085213 56.47514569 20.09876328 59.2374863 20 62 C20.99 62 21.98 62 23 62 C23 62.66 23 63.32 23 64 C23.86625 64.37125 23.86625 64.37125 24.75 64.75 C27.3334875 66.18527083 28.97785783 67.85147394 31 70 C32.29470975 71.37086915 33.62150897 72.71340837 35 74 C35.66 74 36.32 74 37 74 C37.99 74.99 37.99 74.99 39 76 C39.99 76.66 40.98 77.32 42 78 C42.43237305 80.06298828 42.43237305 80.06298828 42.51171875 82.5703125 C42.54716797 83.46621094 42.58261719 84.36210938 42.61914062 85.28515625 C42.65297852 86.69087891 42.65297852 86.69087891 42.6875 88.125 C42.72166016 89.06988281 42.75582031 90.01476562 42.79101562 90.98828125 C42.87364112 93.32540253 42.94273988 95.66214191 43 98 C41.35 97.67 39.7 97.34 38 97 C38.04382813 95.85402344 38.08765625 94.70804687 38.1328125 93.52734375 C38.44964012 84.96991287 38.44964012 84.96991287 34.98828125 77.5234375 C32.40172744 75.78850554 29.78558376 74.38877807 27 73 C25.49662209 71.92903179 24.01485256 70.82670591 22.5625 69.6875 C20.40539952 68.04378042 18.26083395 66.50722263 16 65 C15.66183472 63.1631012 15.66183472 63.1631012 15.71044922 60.90844727 C15.71970428 60.06318985 15.72895935 59.21793243 15.73849487 58.34706116 C15.77126022 56.97063698 15.77126022 56.97063698 15.8046875 55.56640625 C15.81166555 53.61784408 15.81681318 51.66927465 15.8203125 49.72070312 C15.84083419 46.65246601 15.87447871 43.58639307 15.94140625 40.51879883 C16.56954841 26.50290427 16.56954841 26.50290427 10.66796875 14.33984375 C9.15112863 12.85223043 7.59768559 11.40042782 6 10 C0 3.49053006 0 3.49053006 0 0 Z " fill="#562C88" transform="translate(35,3)"/>
<path d="M0 0 C0.99 0.33 1.98 0.66 3 1 C2.34 1 1.68 1 1 1 C3.49693931 5.58354244 6.69814864 9.29261075 10.125 13.1875 C11.21276747 14.42938909 12.29879081 15.67280869 13.3828125 16.91796875 C13.86121582 17.46219482 14.33961914 18.0064209 14.83251953 18.56713867 C16.9518595 21.1682274 17.12103165 22.92851451 17.11010742 26.20263672 C17.11097603 27.5044136 17.11097603 27.5044136 17.11186218 28.83248901 C17.10869743 30.24185226 17.10869743 30.24185226 17.10546875 31.6796875 C17.11892318 33.66016716 17.13394604 35.64063667 17.15039062 37.62109375 C17.17324809 40.75084536 17.18748231 43.87945286 17.17504883 47.00927734 C17.16624965 50.02525474 17.19509132 53.03894653 17.23046875 56.0546875 C17.21823776 56.99021454 17.20600677 57.92574158 17.19340515 58.88961792 C17.24032323 61.39965556 17.33964421 63.57743544 18 66 C20.73570441 68.5994447 20.73570441 68.5994447 24 70 C25.88258669 71.34359954 27.75779774 72.69760144 29.625 74.0625 C31.00558594 75.06990234 31.00558594 75.06990234 32.4140625 76.09765625 C33.69410156 77.03931641 33.69410156 77.03931641 35 78 C35.76570313 78.41765625 36.53140625 78.8353125 37.3203125 79.265625 C39 81 39 81 39.390625 84.57421875 C39.3641199 85.94585748 39.3165309 87.31721938 39.25 88.6875 C39.23195312 89.38939453 39.21390625 90.09128906 39.1953125 90.81445312 C39.14826213 92.54355436 39.07651873 94.27195205 39 96 C38.01 95.67 37.02 95.34 36 95 C35.3125 92.9375 35.3125 92.9375 35 91 C35.66 91 36.32 91 37 91 C37 87.7 37 84.4 37 81 C36.03320312 80.66548828 36.03320312 80.66548828 35.046875 80.32421875 C30.87496164 78.51104102 27.10568633 76.2149892 23.25 73.8125 C22.47011719 73.35552734 21.69023438 72.89855469 20.88671875 72.42773438 C19.77490234 71.73067383 19.77490234 71.73067383 18.640625 71.01953125 C17.96547852 70.60807861 17.29033203 70.19662598 16.59472656 69.77270508 C12.64000172 65.3766155 13.90649821 57.52386299 13.96484375 51.8828125 C13.96113139 50.12369208 13.95520323 48.36457518 13.94726562 46.60546875 C13.93672013 43.86413043 13.93749442 41.1253993 13.97583008 38.38427734 C14.00916911 35.71571603 13.99127984 33.05137021 13.96484375 30.3828125 C13.98739731 29.57627228 14.00995087 28.76973206 14.03318787 27.93875122 C13.8619408 19.71367218 11.34395567 19.13695013 5 12 C4.67 32.46 4.34 52.92 4 74 C5.65 74.66 7.3 75.32 9 76 C11.00114984 77.05715327 12.98581364 78.14584359 14.95703125 79.2578125 C16.06884766 79.88300781 17.18066406 80.50820312 18.32617188 81.15234375 C19.48831901 81.8098291 20.65042791 82.46738203 21.8125 83.125 C22.99398189 83.79064641 24.175621 84.45601384 25.35742188 85.12109375 C28.23983905 86.74465934 31.12062331 88.37105015 34 90 C34 90.66 34 91.32 34 92 C31.10167803 93.23421579 30.00052414 93.00019523 26.99145508 91.87939453 C23.9112833 90.32988684 20.83764893 88.7741081 17.7902832 87.16113281 C15.82402458 86.13103757 13.83733628 85.15179499 11.84570312 84.171875 C10.58958012 83.51601084 9.33496605 82.85724694 8.08203125 82.1953125 C6.93968018 81.60766113 5.7973291 81.02000977 4.62036133 80.41455078 C1.58326508 77.61599662 1.21679572 75.90320497 1.02888489 71.8425293 C1.01935287 70.90449463 1.00982086 69.96645996 1 69 C0.96553268 67.8560376 0.93106537 66.7120752 0.89555359 65.53344727 C0.78742328 61.36459928 0.73097213 57.19720532 0.68359375 53.02734375 C0.66298457 51.49320466 0.64198718 49.95907074 0.62062073 48.42494202 C0.56580882 44.41541775 0.51622184 40.40584577 0.46777344 36.39624023 C0.41725707 32.29341459 0.3617294 28.19065698 0.30664062 24.08789062 C0.19956024 16.05865152 0.09800713 8.02935496 0 0 Z " fill="#526CEF" transform="translate(34,2)"/>
<path d="M0 0 C0.495 1.98 0.495 1.98 1 4 C-0.98 4.99 -0.98 4.99 -3 6 C-3 6.66 -3 7.32 -3 8 C-4.98 8.99 -6.96 9.98 -9 11 C-9 11.66 -9 12.32 -9 13 C-10.65 13.66 -12.3 14.32 -14 15 C-14 15.66 -14 16.32 -14 17 C-14.78375 17.268125 -15.5675 17.53625 -16.375 17.8125 C-19.28114923 18.84814432 -19.28114923 18.84814432 -21 22 C-22.64626923 23.03323541 -24.31699216 24.02775395 -26 25 C-28.10126923 26.49595436 -30.18405443 28.01812936 -32.25 29.5625 C-33.30703125 30.34753906 -34.3640625 31.13257812 -35.453125 31.94140625 C-38.04574804 33.74609102 -38.04574804 33.74609102 -39 36 C-39.99 36 -40.98 36 -42 36 C-42 31.38 -42 26.76 -42 22 C-32.97800677 16.94557339 -23.94200105 11.92074617 -14.8125 7.0625 C-14.13131104 6.69777588 -13.45012207 6.33305176 -12.74829102 5.95727539 C-8.57547818 3.7491083 -4.36279583 1.8050997 0 0 Z M-34 22 C-34.66 23.32 -35.32 24.64 -36 26 C-34.68 24.68 -33.36 23.36 -32 22 C-32.66 22 -33.32 22 -34 22 Z " fill="#D493A7" transform="translate(99,16)"/>
<path d="M0 0 C0.99 0.33 1.98 0.66 3 1 C2.34 1 1.68 1 1 1 C2.61268692 3.71224618 4.24901874 6.37352812 6 9 C5.01 9.33 4.02 9.66 3 10 C3 31.12 3 52.24 3 74 C4.32 74.33 5.64 74.66 7 75 C8.86747245 75.91250899 10.71051033 76.87570776 12.53515625 77.87109375 C13.59154297 78.44537109 14.64792969 79.01964844 15.73632812 79.61132812 C16.83396484 80.21396484 17.93160156 80.81660156 19.0625 81.4375 C20.16400391 82.03626953 21.26550781 82.63503906 22.40039062 83.25195312 C30.53058036 87.68705357 30.53058036 87.68705357 34 90 C34 90.66 34 91.32 34 92 C31.10167803 93.23421579 30.00052414 93.00019523 26.99145508 91.87939453 C23.9112833 90.32988684 20.83764893 88.7741081 17.7902832 87.16113281 C15.82402458 86.13103757 13.83733628 85.15179499 11.84570312 84.171875 C10.58958012 83.51601084 9.33496605 82.85724694 8.08203125 82.1953125 C6.93968018 81.60766113 5.7973291 81.02000977 4.62036133 80.41455078 C1.58326508 77.61599662 1.21679572 75.90320497 1.02888489 71.8425293 C1.01935287 70.90449463 1.00982086 69.96645996 1 69 C0.96553268 67.8560376 0.93106537 66.7120752 0.89555359 65.53344727 C0.78742328 61.36459928 0.73097213 57.19720532 0.68359375 53.02734375 C0.66298457 51.49320466 0.64198718 49.95907074 0.62062073 48.42494202 C0.56580882 44.41541775 0.51622184 40.40584577 0.46777344 36.39624023 C0.41725707 32.29341459 0.3617294 28.19065698 0.30664062 24.08789062 C0.19956024 16.05865152 0.09800713 8.02935496 0 0 Z " fill="#6174EA" transform="translate(34,2)"/>
<path d="M0 0 C0 1.65 0 3.3 0 5 C-1.670625 5.433125 -1.670625 5.433125 -3.375 5.875 C-7.00291092 6.69241329 -7.00291092 6.69241329 -9 9 C-10.71140027 9.88922842 -12.44452307 10.73687935 -14.1875 11.5625 C-20.01978151 14.40803202 -25.52304806 17.64238167 -31.01049805 21.10375977 C-35.68435774 24 -35.68435774 24 -39 24 C-39 20.37 -39 16.74 -39 13 C-31.28864935 9.77485804 -23.50399958 7.20920324 -15.5 4.8125 C-13.17662858 4.112184 -10.85368806 3.41043634 -8.53125 2.70703125 C-7.51611328 2.4025708 -6.50097656 2.09811035 -5.45507812 1.78442383 C-3.71301263 1.22781519 -1.80758169 0 0 0 Z " fill="#6CA0EF" transform="translate(96,12)"/>
<path d="M0 0 C2 2 2 2 2.22705078 5.71533203 C2.22673351 7.31286052 2.21539982 8.91041027 2.1953125 10.5078125 C2.1924826 11.34843231 2.18965271 12.18905212 2.18673706 13.05514526 C2.1755243 15.74524046 2.15041803 18.4350051 2.125 21.125 C2.1149716 22.94660978 2.10584551 24.76822477 2.09765625 26.58984375 C2.07558142 31.06002358 2.04104434 35.52995571 2 40 C3.32 40 4.64 40 6 40 C6 40.66 6 41.32 6 42 C6.5775 42.2475 7.155 42.495 7.75 42.75 C10.3334875 44.18527083 11.97785783 45.85147394 14 48 C15.29470975 49.37086915 16.62150897 50.71340837 18 52 C18.66 52 19.32 52 20 52 C20.66 52.66 21.32 53.32 22 54 C22.99 54.66 23.98 55.32 25 56 C25.43237305 58.06298828 25.43237305 58.06298828 25.51171875 60.5703125 C25.56489258 61.91416016 25.56489258 61.91416016 25.61914062 63.28515625 C25.64169922 64.22230469 25.66425781 65.15945312 25.6875 66.125 C25.73874023 67.54232422 25.73874023 67.54232422 25.79101562 68.98828125 C25.87364112 71.32540253 25.94273988 73.66214191 26 76 C24.35 75.67 22.7 75.34 21 75 C21.04382813 73.85402344 21.08765625 72.70804687 21.1328125 71.52734375 C21.44964012 62.96991287 21.44964012 62.96991287 17.98828125 55.5234375 C15.40182267 53.78856942 12.78466577 52.39032953 10 51 C8.47594807 49.90780463 6.97331443 48.78472824 5.5 47.625 C3.67117026 46.22339688 2.06164511 45.03082255 0 44 C0 29.48 0 14.96 0 0 Z " fill="#48207C" transform="translate(52,25)"/>
<path d="M0 0 C0 1.65 0 3.3 0 5 C-1.670625 5.433125 -1.670625 5.433125 -3.375 5.875 C-7.00291092 6.69241329 -7.00291092 6.69241329 -9 9 C-10.71140027 9.88922842 -12.44452307 10.73687935 -14.1875 11.5625 C-20.01978151 14.40803202 -25.52304806 17.64238167 -31.01049805 21.10375977 C-35.68435774 24 -35.68435774 24 -39 24 C-39 20.37 -39 16.74 -39 13 C-37.68 12.67 -36.36 12.34 -35 12 C-35.66 12.66 -36.32 13.32 -37 14 C-37.40047444 16.32275177 -37.7397104 18.65739357 -38 21 C-27.78295934 16.01089963 -17.80404848 10.75987848 -8 5 C-9.0725 5.350625 -10.145 5.70125 -11.25 6.0625 C-14.78720743 6.94680186 -15.74811124 7.02880551 -19 6 C-16.02163997 4.99758612 -13.04218266 3.99847479 -10.0625 3 C-8.78729492 2.57074219 -8.78729492 2.57074219 -7.48632812 2.1328125 C-6.67744141 1.86210937 -5.86855469 1.59140625 -5.03515625 1.3125 C-4.2862915 1.06113281 -3.53742676 0.80976563 -2.76586914 0.55078125 C-1 0 -1 0 0 0 Z " fill="#D0D1C0" transform="translate(96,12)"/>
<path d="M0 0 C3.35382822 1.72970183 6.61521353 3.60009433 9.875 5.5 C10.75414063 5.99886719 11.63328125 6.49773437 12.5390625 7.01171875 C13.36921875 7.49253906 14.199375 7.97335938 15.0546875 8.46875 C15.81249512 8.90638672 16.57030273 9.34402344 17.35107422 9.79492188 C17.89521973 10.19259766 18.43936523 10.59027344 19 11 C19 11.66 19 12.32 19 13 C16.21759459 14.13432088 15.17655282 14.07174689 12.34277344 12.92016602 C11.35825195 12.37030029 10.37373047 11.82043457 9.359375 11.25390625 C7.75449219 10.36928711 7.75449219 10.36928711 6.1171875 9.46679688 C5.00601563 8.83837891 3.89484375 8.20996094 2.75 7.5625 C1.62335937 6.93794922 0.49671875 6.31339844 -0.6640625 5.66992188 C-3.44895992 4.1240678 -6.22704444 2.56714387 -9 1 C-9 0.34 -9 -0.32 -9 -1 C-5.04451559 -2.3184948 -3.86041805 -1.58285934 0 0 Z " fill="#6376ED" transform="translate(49,81)"/>
<path d="M0 0 C0.66 0.33 1.32 0.66 2 1 C-0.43021787 6.04737558 -2.95675586 10.09153067 -7 14 C-7.33 14.66 -7.66 15.32 -8 16 C-7.01 16 -6.02 16 -5 16 C-4.67 16 -4.34 16 -4 16 C-4 18.97 -4 21.94 -4 25 C-5.65 25.66 -7.3 26.32 -9 27 C-9.66 26.01 -10.32 25.02 -11 24 C-9.68 24 -8.36 24 -7 24 C-7 22.35 -7 20.7 -7 19 C-8.98 19 -10.96 19 -13 19 C-12.67566492 13.64847115 -9.50295176 10.71719957 -6 7 C-6.66 6.67 -7.32 6.34 -8 6 C-5.36 4.02 -2.72 2.04 0 0 Z " fill="#7E214A" transform="translate(78,38)"/>
<path d="M0 0 C0.99 0.33 1.98 0.66 3 1 C1.84164381 3.84323792 0.6782639 5.31388887 -1.5625 7.5 C-3.86376327 9.86027002 -4.64621864 10.81596775 -5 14 C-3.02 14 -1.04 14 1 14 C1 14.99 1 15.98 1 17 C-0.65 17 -2.3 17 -4 17 C-3.34 18.65 -2.68 20.3 -2 22 C-6 22 -6 22 -7.703125 20.80078125 C-9.8572268 17.80969412 -9.76605968 15.10557841 -9.703125 11.5078125 C-8.76827184 8.1735029 -7.39786841 7.37594596 -4.5 5.5625 C-3.6646875 5.13066406 -2.829375 4.69882812 -1.96875 4.25390625 C-1.3190625 3.84011719 -0.669375 3.42632812 0 3 C0 2.01 0 1.02 0 0 Z " fill="#FE6DB6" transform="translate(69,44)"/>
<path d="M0 0 C2 2 2 2 2.22705078 5.71533203 C2.22673351 7.31286052 2.21539982 8.91041027 2.1953125 10.5078125 C2.1924826 11.34843231 2.18965271 12.18905212 2.18673706 13.05514526 C2.1755243 15.74524046 2.15041803 18.4350051 2.125 21.125 C2.1149716 22.94660978 2.10584551 24.76822477 2.09765625 26.58984375 C2.07558142 31.06002358 2.04104434 35.52995571 2 40 C3.32 40 4.64 40 6 40 C6 40.66 6 41.32 6 42 C7.32 42.66 8.64 43.32 10 44 C9.01 44 8.02 44 7 44 C6.154375 44.185625 5.30875 44.37125 4.4375 44.5625 C2 45 2 45 0 44 C0 29.48 0 14.96 0 0 Z " fill="#3A026E" transform="translate(52,25)"/>
<path d="M0 0 C0.33 0.66 0.66 1.32 1 2 C1.66 2.33 2.32 2.66 3 3 C-6.70396067 11.97520473 -6.70396067 11.97520473 -10.5625 14.4375 C-13.09794626 15.76951455 -13.09794626 15.76951455 -14 18 C-14.99 18 -15.98 18 -17 18 C-17 13.38 -17 8.76 -17 4 C-16.67 4 -16.34 4 -16 4 C-16 7.63 -16 11.26 -16 15 C-11.31566505 12.12420477 -11.31566505 12.12420477 -8 8 C-8.66 7.67 -9.32 7.34 -10 7 C-7.62671491 4.25198568 -5.3518635 3.28917827 -2 2 C-1.34 1.34 -0.68 0.68 0 0 Z " fill="#DC639C" transform="translate(74,34)"/>
<path d="M0 0 C-0.825 0.78375 -1.65 1.5675 -2.5 2.375 C-5.22988506 4.63721264 -5.22988506 4.63721264 -5 7 C-3.68 7 -2.36 7 -1 7 C-2.38877354 10.35620271 -3.91677965 12.07298728 -7 14 C-7.66 14 -8.32 14 -9 14 C-9 10.04 -9 6.08 -9 2 C-3.375 -1.125 -3.375 -1.125 0 0 Z " fill="#F76EAE" transform="translate(67,35)"/>
<path d="M0 0 C0.66 0.66 1.32 1.32 2 2 C1.3503125 2.31710938 0.700625 2.63421875 0.03125 2.9609375 C-2.64798528 4.45767079 -4.81298014 5.83850955 -7 8 C-8.21710406 12.77826038 -7.27296229 17.31808785 -6 22 C-9.875 20.125 -9.875 20.125 -11 19 C-11.07226502 17.14712498 -11.0838122 15.29166122 -11.0625 13.4375 C-11.05347656 12.42558594 -11.04445312 11.41367187 -11.03515625 10.37109375 C-11.02355469 9.58863281 -11.01195312 8.80617188 -11 8 C-10.01 7.67 -9.02 7.34 -8 7 C-6.79117904 4.99983534 -6.79117904 4.99983534 -6 3 C-5.34 3 -4.68 3 -4 3 C-3.34 2.34 -2.68 1.68 -2 1 C-1.34 0.67 -0.68 0.34 0 0 Z " fill="#C92273" transform="translate(68,45)"/>
<path d="M0 0 C0.66 0.33 1.32 0.66 2 1 C2 5 2 5 1 8 C-1 7 -1 7 -3 5 C-3.37125 5.474375 -3.7425 5.94875 -4.125 6.4375 C-6.61615343 8.51346119 -8.84016447 8.47336075 -12 9 C-13.85801239 10.43691955 -13.85801239 10.43691955 -15 12 C-15.33 11.01 -15.66 10.02 -16 9 C-15.195625 8.401875 -14.39125 7.80375 -13.5625 7.1875 C-10.77672016 5.19052724 -10.77672016 5.19052724 -10 2 C-8.72125 1.855625 -7.4425 1.71125 -6.125 1.5625 C-3.74307106 1.29357254 -2.15547309 1.07773654 0 0 Z " fill="#EF69AB" transform="translate(77,30)"/>
<path d="M0 0 C-2.76883196 1.48293582 -5.5403973 2.96068862 -8.3125 4.4375 C-9.09818359 4.85837891 -9.88386719 5.27925781 -10.69335938 5.71289062 C-11.45068359 6.11572266 -12.20800781 6.51855469 -12.98828125 6.93359375 C-13.68477783 7.30540771 -14.38127441 7.67722168 -15.09887695 8.06030273 C-17 9 -17 9 -20 10 C-20 8.35 -20 6.7 -20 5 C-18.35 4.34 -16.7 3.68 -15 3 C-16.32 2.67 -17.64 2.34 -19 2 C-17.5437328 1.63743142 -16.08488815 1.28520207 -14.625 0.9375 C-13.40683594 0.64166016 -13.40683594 0.64166016 -12.1640625 0.33984375 C-10 0 -10 0 -8 1 C-7.195625 0.67 -6.39125 0.34 -5.5625 0 C-3 -1 -3 -1 0 0 Z " fill="#D2F4E1" transform="translate(80,21)"/>
<path d="M0 0 C0.99 0.33 1.98 0.66 3 1 C2.34 1 1.68 1 1 1 C2.61268692 3.71224618 4.24901874 6.37352812 6 9 C4.68 9.33 3.36 9.66 2 10 C2 18.58 2 27.16 2 36 C1.67 36 1.34 36 1 36 C0.67 24.12 0.34 12.24 0 0 Z " fill="#618EE0" transform="translate(34,2)"/>
<path d="M0 0 C0 1.65 0 3.3 0 5 C-1.11375 5.28875 -2.2275 5.5775 -3.375 5.875 C-7.00291092 6.69241329 -7.00291092 6.69241329 -9 9 C-9.99 9 -10.98 9 -12 9 C-12 8.34 -12 7.68 -12 7 C-11.01 6.34 -10.02 5.68 -9 5 C-9.9075 5.350625 -10.815 5.70125 -11.75 6.0625 C-15.00591313 7.00170571 -15.92749994 6.95514676 -19 6 C-16.02163997 4.99758612 -13.04218266 3.99847479 -10.0625 3 C-9.21236328 2.71382812 -8.36222656 2.42765625 -7.48632812 2.1328125 C-6.67744141 1.86210937 -5.86855469 1.59140625 -5.03515625 1.3125 C-4.2862915 1.06113281 -3.53742676 0.80976563 -2.76586914 0.55078125 C-1 0 -1 0 0 0 Z " fill="#B0B4A3" transform="translate(96,12)"/>
<path d="M0 0 C3.04516202 2.83332467 5.16868601 5.65500311 7.25 9.25 C8.03117187 10.58804688 8.03117187 10.58804688 8.828125 11.953125 C9.21484375 12.62859375 9.6015625 13.3040625 10 14 C9.01 14.33 8.02 14.66 7 15 C4.3125 13.4375 4.3125 13.4375 2 11 C1.8125 8.0625 1.8125 8.0625 2 5 C1.08742694 2.21433941 1.08742694 2.21433941 0 0 Z " fill="#A72566" transform="translate(70,65)"/>
<path d="M0 0 C0.33 0 0.66 0 1 0 C1 3.63 1 7.26 1 11 C2.8253125 9.6078125 2.8253125 9.6078125 4.6875 8.1875 C7.69717166 5.92623692 10.71387661 3.84844441 14 2 C12.58214152 5.42958438 10.96809658 7.02393304 7.9375 9.125 C4.95372478 11.11074647 4.95372478 11.11074647 3 14 C2.01 14 1.02 14 0 14 C0 9.38 0 4.76 0 0 Z " fill="#EFE7CE" transform="translate(57,38)"/>
<path d="M0 0 C0.33 1.32 0.66 2.64 1 4 C-0.98 4.99 -0.98 4.99 -3 6 C-3 6.66 -3 7.32 -3 8 C-4.98 8.99 -4.98 8.99 -7 10 C-7 9.01 -7 8.02 -7 7 C-8.98 7.99 -8.98 7.99 -11 9 C-9.94833532 5.84500596 -9.5242483 5.01939864 -7 3 C-4.70092597 1.87862536 -2.38198319 0.94380466 0 0 Z " fill="#9E5472" transform="translate(99,16)"/>
<path d="M0 0 C0.66 0.33 1.32 0.66 2 1 C-0.97 2.65 -3.94 4.3 -7 6 C-7 5.34 -7 4.68 -7 4 C-7.54269531 4.22816406 -8.08539063 4.45632812 -8.64453125 4.69140625 C-9.35996094 4.97886719 -10.07539062 5.26632813 -10.8125 5.5625 C-11.52019531 5.85253906 -12.22789063 6.14257812 -12.95703125 6.44140625 C-15 7 -15 7 -18 6 C-17.67 5.34 -17.34 4.68 -17 4 C-14.72958206 3.39320032 -12.43153231 2.88795774 -10.125 2.4375 C-5.00559042 1.43376875 -5.00559042 1.43376875 0 0 Z " fill="#84B2EA" transform="translate(87,16)"/>
<path d="M0 0 C0.33 0.99 0.66 1.98 1 3 C2.98 3 4.96 3 7 3 C7 4.65 7 6.3 7 8 C6.01 8.33 5.02 8.66 4 9 C6.475 12.465 6.475 12.465 9 16 C8.67 16.66 8.34 17.32 8 18 C6.82750647 16.54634731 5.66216184 15.08692581 4.5 13.625 C3.8503125 12.81289062 3.200625 12.00078125 2.53125 11.1640625 C1 9 1 9 1 7 C2.65 7 4.3 7 6 7 C6 6.01 6 5.02 6 4 C4.02 4 2.04 4 0 4 C0 2.68 0 1.36 0 0 Z " fill="#F0148F" transform="translate(64,54)"/>
<path d="M0 0 C0.66 0 1.32 0 2 0 C2 2.97 2 5.94 2 9 C3.32 9.33 4.64 9.66 6 10 C6.66 10.33 7.32 10.66 8 11 C8 11.66 8 12.32 8 13 C3.25 14.125 3.25 14.125 1 13 C0.5859375 10.05859375 0.5859375 10.05859375 0.375 6.4375 C0.30023438 5.23996094 0.22546875 4.04242188 0.1484375 2.80859375 C0.09945312 1.88175781 0.05046875 0.95492187 0 0 Z " fill="#5879D3" transform="translate(35,67)"/>
<path d="M0 0 C3.5 1.375 3.5 1.375 4.9375 4 C5.2159375 5.175625 5.2159375 5.175625 5.5 6.375 C-0.9 6.00576923 -0.9 6.00576923 -3.9375 2.8125 C-4.453125 2.008125 -4.96875 1.20375 -5.5 0.375 C-3.5 -0.625 -3.5 -0.625 0 0 Z " fill="#442E5A" transform="translate(61.5,69.625)"/>
<path d="M0 0 C0.66 0.33 1.32 0.66 2 1 C0.50902342 4.7952131 -1.75700849 6.61042731 -5 9 C-5.99 8.01 -6.98 7.02 -8 6 C-5.36 4.02 -2.72 2.04 0 0 Z " fill="#A42D63" transform="translate(78,38)"/>
<path d="M0 0 C2.91271644 1.34680915 5.29328277 2.87448745 7.75 4.9375 C8.67039062 5.69353516 8.67039062 5.69353516 9.609375 6.46484375 C11 8 11 8 11 11 C7.59959266 9.86653089 6.46270748 8.53733498 4 6 C3.2575 5.484375 2.515 4.96875 1.75 4.4375 C0.88375 3.7259375 0.88375 3.7259375 0 3 C0 2.01 0 1.02 0 0 Z " fill="#452A59" transform="translate(43,10)"/>
<path d="M0 0 C0.33 0 0.66 0 1 0 C1.33 6.27 1.66 12.54 2 19 C1.01 18.67 0.02 18.34 -1 18 C-1.33 14.7 -1.66 11.4 -2 8 C-1.67 8 -1.34 8 -1 8 C-0.67 5.36 -0.34 2.72 0 0 Z " fill="#241424" transform="translate(76,82)"/>
<path d="M0 0 C2.37948772 0.17625835 3.70225849 0.69719773 5.37890625 2.40234375 C6.62115486 3.90649092 7.81376056 5.45129851 9 7 C5.84915995 7 4.66128684 6.54526333 2 5 C1.34 4.34 0.68 3.68 0 3 C0 2.01 0 1.02 0 0 Z " fill="#310958" transform="translate(35,3)"/>
<path d="M0 0 C1.98 0 3.96 0 6 0 C6 0.66 6 1.32 6 2 C7.32 2.66 8.64 3.32 10 4 C9.01 4 8.02 4 7 4 C6.154375 4.185625 5.30875 4.37125 4.4375 4.5625 C2 5 2 5 0 4 C0 2.68 0 1.36 0 0 Z " fill="#30174A" transform="translate(52,65)"/>
<path d="M0 0 C0.66 0.33 1.32 0.66 2 1 C1.01 1.33 0.02 1.66 -1 2 C-0.67 2.66 -0.34 3.32 0 4 C1.32 3.34 2.64 2.68 4 2 C2.875 4 2.875 4 1 6 C-2.0625 6.375 -2.0625 6.375 -5 6 C-5.66 5.34 -6.32 4.68 -7 4 C-1.7265625 0.77734375 -1.7265625 0.77734375 0 0 Z " fill="#FCCDD1" transform="translate(90,20)"/>
<path d="M0 0 C-2.52956528 3.0916909 -5.22454612 3.90931332 -9 5 C-9.66 4.34 -10.32 3.68 -11 3 C-9.73581754 2.30034557 -8.46334598 1.61565237 -7.1875 0.9375 C-6.47980469 0.55464844 -5.77210937 0.17179687 -5.04296875 -0.22265625 C-3 -1 -3 -1 0 0 Z " fill="#FCA9C7" transform="translate(80,28)"/>
<path d="M0 0 C0.66 0.33 1.32 0.66 2 1 C2 5 2 5 1 8 C-1 7 -1 7 -4 5 C-2.25 1.125 -2.25 1.125 0 0 Z " fill="#C34884" transform="translate(77,30)"/>
<path d="M0 0 C1.29608947 0.93137592 2.58671632 1.8703566 3.875 2.8125 C4.59429687 3.33457031 5.31359375 3.85664062 6.0546875 4.39453125 C8 6 8 6 10 9 C6.11624195 8.42462844 3.82218799 6.66963729 1 4 C0.35546875 1.86328125 0.35546875 1.86328125 0 0 Z " fill="#EF2091" transform="translate(61,64)"/>
<path d="M0 0 C0.99 0.33 1.98 0.66 3 1 C2.01 1.495 2.01 1.495 1 2 C0.59270772 4.32156597 0.25561323 6.6568787 0 9 C1.98 9.495 1.98 9.495 4 10 C3.34 10.66 2.68 11.32 2 12 C1.01 12 0.02 12 -1 12 C-1.02687279 10.18757948 -1.04633715 8.37504767 -1.0625 6.5625 C-1.07410156 5.55316406 -1.08570313 4.54382813 -1.09765625 3.50390625 C-1 1 -1 1 0 0 Z " fill="#E8EAD1" transform="translate(58,24)"/>
<path d="M0 0 C2.475 0.99 2.475 0.99 5 2 C5 2.99 5 3.98 5 5 C2.03 4.505 2.03 4.505 -1 4 C-0.67 2.68 -0.34 1.36 0 0 Z " fill="#5A6EF0" transform="translate(52,84)"/>
<path d="M0 0 C-4.75 3.875 -4.75 3.875 -7 5 C-7 4.34 -7 3.68 -7 3 C-7.66 2.67 -8.32 2.34 -9 2 C-3.375 -1.125 -3.375 -1.125 0 0 Z " fill="#FCA1C8" transform="translate(67,35)"/>
<path d="M0 0 C0.99 0.33 1.98 0.66 3 1 C1.50902342 4.7952131 -0.75700849 6.61042731 -4 9 C-3.42618522 5.67187429 -2.40619252 4.30157545 0 2 C0 1.34 0 0.68 0 0 Z " fill="#FB60B2" transform="translate(69,44)"/>
<path d="M0 0 C0.33 0.66 0.66 1.32 1 2 C1.66 2.33 2.32 2.66 3 3 C1 5 1 5 -2.125 5.125 C-3.548125 5.063125 -3.548125 5.063125 -5 5 C-3.35 3.35 -1.7 1.7 0 0 Z " fill="#FDB2C5" transform="translate(74,34)"/>
<path d="M0 0 C0.33 1.32 0.66 2.64 1 4 C-1.875 4.625 -1.875 4.625 -5 5 C-5.66 4.34 -6.32 3.68 -7 3 C-4.69 2.01 -2.38 1.02 0 0 Z " fill="#C8BBAA" transform="translate(99,16)"/>
<path d="M0 0 C2.0625 0.6875 2.0625 0.6875 4 2 C4.75 4.125 4.75 4.125 5 6 C0.25 4.125 0.25 4.125 -2 3 C-2 2.34 -2 1.68 -2 1 C-1.34 0.67 -0.68 0.34 0 0 Z " fill="#6986F0" transform="translate(68,93)"/>
<path d="M0 0 C0.99 0.33 1.98 0.66 3 1 C1.576875 1.928125 1.576875 1.928125 0.125 2.875 C-2.94445109 4.81970969 -2.94445109 4.81970969 -5 7 C-5.33 6.01 -5.66 5.02 -6 4 C-3.1875 1.9375 -3.1875 1.9375 0 0 Z " fill="#AB1968" transform="translate(67,35)"/>
<path d="M0 0 C2.35171131 0.59861742 4.6859378 1.26924352 7 2 C7.33 2.66 7.66 3.32 8 4 C7.01 4.33 6.02 4.66 5 5 C3.35 3.35 1.7 1.7 0 0 Z " fill="#4C217B" transform="translate(63,75)"/>
<path d="M0 0 C2.125 0.9375 2.125 0.9375 4 2 C3.34 3.32 2.68 4.64 2 6 C0.68 4.35 -0.64 2.7 -2 1 C-1.34 0.67 -0.68 0.34 0 0 Z " fill="#482379" transform="translate(58,69)"/>
<path d="M0 0 C0.66 0 1.32 0 2 0 C1.67 1.65 1.34 3.3 1 5 C0.34 5 -0.32 5 -1 5 C-0.67 3.35 -0.34 1.7 0 0 Z " fill="#8F502D" transform="translate(91,60)"/>
<path d="M0 0 C0.33 0.99 0.66 1.98 1 3 C0.34 3 -0.32 3 -1 3 C-0.67 2.01 -0.34 1.02 0 0 Z " fill="#9D7F4E" transform="translate(86,65)"/>
<path d="M0 0 C0.99 0.33 1.98 0.66 3 1 C2.01 1 1.02 1 0 1 C0 0.67 0 0.34 0 0 Z " fill="#000000" transform="translate(66,73)"/>
<path d="M0 0 C0.33 0.66 0.66 1.32 1 2 C0.34 1.67 -0.32 1.34 -1 1 C-0.67 0.67 -0.34 0.34 0 0 Z " fill="#616145" transform="translate(94,31)"/>
<path d="" fill="#000000" transform="translate(0,0)"/>
<path d="" fill="#000000" transform="translate(0,0)"/>
<path d="" fill="#000000" transform="translate(0,0)"/>
<path d="" fill="#000000" transform="translate(0,0)"/>
<path d="" fill="#000000" transform="translate(0,0)"/>
<path d="" fill="#000000" transform="translate(0,0)"/>
<path d="" fill="#000000" transform="translate(0,0)"/>
<path d="" fill="#000000" transform="translate(0,0)"/>
<path d="" fill="#000000" transform="translate(0,0)"/>
<path d="" fill="#000000" transform="translate(0,0)"/>
<path d="" fill="#000000" transform="translate(0,0)"/>
<path d="" fill="#000000" transform="translate(0,0)"/>
<path d="" fill="#000000" transform="translate(0,0)"/>
<path d="" fill="#000000" transform="translate(0,0)"/>
<path d="" fill="#000000" transform="translate(0,0)"/>
<path d="" fill="#000000" transform="translate(0,0)"/>
<path d="" fill="#000000" transform="translate(0,0)"/>
<path d="" fill="#000000" transform="translate(0,0)"/>
<path d="" fill="#000000" transform="translate(0,0)"/>
<path d="" fill="#000000" transform="translate(0,0)"/>
<path d="" fill="#000000" transform="translate(0,0)"/>
<path d="" fill="#000000" transform="translate(0,0)"/>
<path d="" fill="#000000" transform="translate(0,0)"/>
<path d="" fill="#000000" transform="translate(0,0)"/>
<path d="" fill="#000000" transform="translate(0,0)"/>
<path d="" fill="#000000" transform="translate(0,0)"/>
<path d="" fill="#000000" transform="translate(0,0)"/>
<path d="" fill="#000000" transform="translate(0,0)"/>
<path d="" fill="#000000" transform="translate(0,0)"/>
<path d="" fill="#000000" transform="translate(0,0)"/>
<path d="" fill="#000000" transform="translate(0,0)"/>
<path d="" fill="#000000" transform="translate(0,0)"/>
<path d="" fill="#000000" transform="translate(0,0)"/>
<path d="" fill="#000000" transform="translate(0,0)"/>
<path d="" fill="#000000" transform="translate(0,0)"/>
<path d="" fill="#000000" transform="translate(0,0)"/>
<path d="" fill="#000000" transform="translate(0,0)"/>
<path d="" fill="#000000" transform="translate(0,0)"/>
<path d="" fill="#000000" transform="translate(0,0)"/>
<path d="" fill="#000000" transform="translate(0,0)"/>
<path d="" fill="#000000" transform="translate(0,0)"/>
<path d="" fill="#000000" transform="translate(0,0)"/>
<path d="" fill="#000000" transform="translate(0,0)"/>
<path d="" fill="#000000" transform="translate(0,0)"/>
<path d="" fill="#000000" transform="translate(0,0)"/>
<path d="" fill="#000000" transform="translate(0,0)"/>
<path d="" fill="#000000" transform="translate(0,0)"/>
<path d="" fill="#000000" transform="translate(0,0)"/>
<path d="" fill="#000000" transform="translate(0,0)"/>
<path d="" fill="#000000" transform="translate(0,0)"/>
<path d="" fill="#000000" transform="translate(0,0)"/>
<path d="" fill="#000000" transform="translate(0,0)"/>
<path d="" fill="#000000" transform="translate(0,0)"/>
<path d="" fill="#000000" transform="translate(0,0)"/>
<path d="" fill="#000000" transform="translate(0,0)"/>
<path d="" fill="#000000" transform="translate(0,0)"/>
<path d="" fill="#000000" transform="translate(0,0)"/>
</svg>
